<svg width="15" height="16" viewBox="0 0 15 16" fill="none" xmlns="http://www.w3.org/2000/svg">
<path d="M14.0625 8C14.0629 8.15916 14.0221 8.31571 13.944 8.45442C13.866 8.59314 13.7534 8.7093 13.6172 8.7916L5.175 13.9561C5.03267 14.0432 4.86965 14.0908 4.70278 14.0939C4.53591 14.097 4.37124 14.0555 4.22578 13.9736C4.08171 13.8931 3.96169 13.7756 3.87806 13.6333C3.79444 13.491 3.75024 13.3289 3.75 13.1639V2.83614C3.75024 2.67107 3.79444 2.50904 3.87806 2.36672C3.96169 2.2244 4.08171 2.10693 4.22578 2.02637C4.37124 1.94454 4.53591 1.90303 4.70278 1.90612C4.86965 1.90921 5.03267 1.95679 5.175 2.04395L13.6172 7.2084C13.7534 7.29071 13.866 7.40687 13.944 7.54558C14.0221 7.6843 14.0629 7.84085 14.0625 8Z" fill="white"/>
</svg>
