<svg width="26" height="26" viewBox="0 0 26 26" fill="none" xmlns="http://www.w3.org/2000/svg">
<path d="M20.4439 21.4938L13.921 14.9708C13.4002 15.4146 12.8012 15.758 12.1241 16.0011C11.4471 16.2441 10.7665 16.3656 10.0825 16.3656C8.41442 16.3656 7.00261 15.7882 5.84706 14.6333C4.6915 13.4778 4.11372 12.0663 4.11372 10.399C4.11372 8.73161 4.69081 7.31946 5.84497 6.16251C6.99983 5.00488 8.41095 4.42606 10.0783 4.42606C11.7464 4.42606 13.1589 5.00383 14.3158 6.15939C15.4728 7.31494 16.0512 8.7271 16.0512 10.3958C16.0512 11.1195 15.9231 11.8198 15.6668 12.4969C15.4099 13.174 15.0731 13.7531 14.6564 14.2344L21.1793 20.7563L20.4439 21.4938ZM10.0825 15.3229C11.4644 15.3229 12.6314 14.8472 13.5835 13.8958C14.5349 12.9445 15.0106 11.7774 15.0106 10.3948C15.0106 9.01286 14.5349 7.84619 13.5835 6.89481C12.6321 5.94342 11.4655 5.46772 10.0835 5.46772C8.70157 5.46772 7.53456 5.94342 6.58247 6.89481C5.63108 7.84619 5.15539 9.01286 5.15539 10.3948C5.15539 11.7768 5.63108 12.9434 6.58247 13.8948C7.53386 14.8462 8.70053 15.3229 10.0825 15.3229Z" fill="#4E4E4E"/>
</svg>
