<svg width="18" height="18" viewBox="0 0 18 18" fill="none" xmlns="http://www.w3.org/2000/svg">
<path opacity="0.5" fill-rule="evenodd" clip-rule="evenodd" d="M8.99999 1.49999C13.1422 1.49999 16.5 4.85774 16.5 8.99999C16.5011 9.84821 16.358 10.6904 16.077 11.4907C15.2598 11.8281 14.3841 12.0012 13.5 12C11.8996 12.0021 10.3509 11.4335 9.13199 10.3965C9.78545 9.94895 10.3199 9.34877 10.6889 8.648C11.058 7.94723 11.2506 7.16701 11.25 6.37499C11.2504 5.53487 11.0336 4.7089 10.6205 3.97732C10.2075 3.24573 9.61231 2.63339 8.89275 2.19975C8.59575 2.01974 8.65274 1.49999 8.99999 1.49999Z" fill="#D9D9D9"/>
<path d="M9 16.5C12.2692 16.5 15.0495 14.4083 16.0763 11.4908C15.2593 11.828 14.3839 12.0011 13.5 12C11.8343 12 10.3095 11.3963 9.132 10.3965C8.32083 10.954 7.35929 11.2517 6.375 11.25C5.53487 11.2504 4.70891 11.0336 3.97733 10.6205C3.24574 10.2075 2.63339 9.61231 2.19975 8.89275C2.01975 8.595 1.5 8.65275 1.5 9C1.5 13.1422 4.85775 16.5 9 16.5Z" fill="#D9D9D9"/>
</svg>
