<svg width="18" height="18" viewBox="0 0 18 18" fill="none" xmlns="http://www.w3.org/2000/svg">
<g clip-path="url(#clip0_14_186)">
<path d="M9.00002 4.26656C6.3858 4.26656 4.26659 6.38578 4.26659 8.9986C4.26659 11.6128 6.3858 13.732 9.00002 13.732C11.6142 13.732 13.7335 11.6128 13.7335 8.9986C13.7335 6.38578 11.6142 4.26656 9.00002 4.26656ZM7.9819 3.40453H10.0196C10.1138 3.40453 10.201 3.35813 10.2558 3.28078C10.3092 3.20485 10.3219 3.105 10.2896 3.01641L9.27002 0.257346C9.22784 0.14344 9.12096 0.0689087 9.00002 0.0689087C8.87908 0.0689087 8.77221 0.144846 8.73002 0.257346L7.71049 3.01781C7.67815 3.10641 7.6908 3.20485 7.74424 3.28219C7.79908 3.35953 7.88768 3.40453 7.9819 3.40453ZM13.6772 5.76422C13.7306 5.81906 13.8052 5.8486 13.8797 5.8486C13.8966 5.8486 13.9135 5.84719 13.9303 5.84438C14.0231 5.8275 14.1005 5.76703 14.1413 5.68125L15.3731 3.00797C15.4238 2.89828 15.3999 2.77031 15.3155 2.68453C15.2297 2.59875 15.1003 2.57625 14.9906 2.62547L12.3188 3.85875C12.233 3.89813 12.1725 3.97688 12.1556 4.06969C12.1388 4.1625 12.1697 4.25672 12.2344 4.32422L13.6772 5.76422ZM17.7441 8.73L14.9822 7.71188C14.8936 7.67953 14.7952 7.69219 14.7178 7.74563C14.6405 7.79906 14.5955 7.88625 14.5955 7.98047L14.5969 10.0181C14.5969 10.1123 14.6433 10.2009 14.7206 10.2544C14.7699 10.2867 14.8275 10.305 14.8852 10.305C14.9189 10.305 14.9527 10.2994 14.985 10.2867L17.7469 9.2686C17.8594 9.22782 17.9353 9.11953 17.9353 8.99719C17.9325 8.87906 17.858 8.77219 17.7441 8.73ZM14.1413 12.3188C14.1218 12.2766 14.0925 12.2397 14.0558 12.2113C14.0191 12.1829 13.976 12.1638 13.9303 12.1556C13.8375 12.1402 13.7419 12.1697 13.6772 12.2358L12.2358 13.6772C12.1697 13.7433 12.1388 13.8389 12.1556 13.9317C12.1725 14.0231 12.233 14.1033 12.3188 14.1427L14.9921 15.3745C15.03 15.3928 15.0708 15.3998 15.113 15.3998C15.1875 15.3998 15.2606 15.3703 15.3155 15.3155C15.4013 15.2297 15.4238 15.1017 15.3731 14.992L14.1413 12.3188ZM10.0181 14.5941L7.98049 14.5955C7.88627 14.5955 7.79909 14.6419 7.74565 14.7192C7.69221 14.7966 7.67955 14.895 7.71049 14.9822L8.73002 17.7441C8.77221 17.8566 8.87908 17.9325 9.00002 17.9325C9.12096 17.9325 9.22784 17.8566 9.27002 17.7441L10.2896 14.9822C10.3219 14.8936 10.3092 14.7952 10.2558 14.7178C10.201 14.6405 10.1138 14.5941 10.0181 14.5941ZM4.32284 12.2358C4.25674 12.1697 4.16252 12.1402 4.06971 12.1556C3.9769 12.1725 3.89815 12.233 3.85877 12.3188L2.6269 14.992C2.57627 15.1017 2.60018 15.2311 2.68596 15.3155C2.72746 15.3571 2.78074 15.3849 2.8386 15.3952C2.89645 15.4056 2.95608 15.3978 3.0094 15.3731L5.68268 14.1398C5.72484 14.1204 5.76169 14.0911 5.7901 14.0544C5.8185 14.0176 5.83761 13.9746 5.8458 13.9289C5.86268 13.8361 5.83174 13.7419 5.76565 13.6758L4.32284 12.2358ZM3.11768 10.3064C3.17534 10.3064 3.23299 10.2881 3.28221 10.2544C3.35955 10.2009 3.40596 10.1123 3.40596 10.0181L3.40455 7.98047C3.40456 7.93416 3.39339 7.88854 3.37198 7.84748C3.35058 7.80642 3.31957 7.77113 3.2816 7.74463C3.24364 7.71812 3.19983 7.70117 3.1539 7.69522C3.10798 7.68928 3.0613 7.69451 3.01783 7.71047L0.25596 8.73C0.20066 8.75028 0.152921 8.78705 0.119194 8.83533C0.0854684 8.88362 0.0673828 8.9411 0.0673828 9C0.0673828 9.0589 0.0854684 9.11638 0.119194 9.16467C0.152921 9.21296 0.20066 9.24973 0.25596 9.27L3.01924 10.2881C3.05159 10.3008 3.08393 10.3064 3.11768 10.3064ZM3.86018 5.68125C3.87965 5.72339 3.90901 5.7602 3.94577 5.78856C3.98252 5.81691 4.02558 5.83597 4.07128 5.84412C4.11698 5.85227 4.16397 5.84926 4.20825 5.83534C4.25254 5.82143 4.29281 5.79703 4.32565 5.76422L5.76565 4.32281C5.83174 4.25531 5.86127 4.1611 5.8444 4.06828C5.82752 3.97688 5.76705 3.89813 5.68127 3.85875L3.00659 2.62688C2.8969 2.57625 2.76893 2.60016 2.68315 2.68594C2.59737 2.77172 2.57487 2.89969 2.62549 3.00938L3.86018 5.68125Z" fill="#FCC21B"/>
</g>
<defs>
<clipPath id="clip0_14_186">
<rect width="18" height="18" fill="white"/>
</clipPath>
</defs>
</svg>
