<svg width="179" height="68" viewBox="0 0 179 68" fill="none" xmlns="http://www.w3.org/2000/svg">
<g clip-path="url(#clip0_42_73)">
<rect x="64" y="51" width="37.2472" height="6.68539" rx="3.3427" fill="white"/>
<path d="M46.46 51.04C47.46 51.04 48.3 51.4 48.98 52.12C49.7 52.8 50.06 53.64 50.06 54.64C50.06 55.64 49.7 56.5 48.98 57.22C48.3 57.9 47.46 58.24 46.46 58.24H9.32C8.16 58.24 7.24 57.96 6.56 57.4C5.92 56.84 5.6 56.02 5.6 54.94C5.6 54.14 5.94 53.36 6.62 52.6L37.64 17.56L38.48 16.96H10.58C9.58 16.96 8.72 16.62 8 15.94C7.32 15.22 6.98 14.36 6.98 13.36C6.98 12.36 7.32 11.52 8 10.84C8.72 10.12 9.58 9.76 10.58 9.76H46.1C48.58 9.76 49.82 10.82 49.82 12.94C49.82 13.86 49.48 14.68 48.8 15.4L17.9 50.26L16.88 51.04H46.46Z" fill="white"/>
<path d="M75.083 57.6404H60.6455C58.5615 57.6404 57.0684 57.1785 56.166 56.2547C55.2852 55.3094 54.8447 53.8162 54.8447 51.7752V16.2615C54.8447 14.1776 55.2959 12.6844 56.1982 11.782C57.1221 10.8582 58.6045 10.3963 60.6455 10.3963H75.9531C78.209 10.3963 80.1641 10.5359 81.8184 10.8152C83.4727 11.0945 84.9551 11.6317 86.2656 12.4266C87.3828 13.0926 88.3711 13.9412 89.2305 14.9725C90.0898 15.9822 90.7451 17.1102 91.1963 18.3563C91.6475 19.5809 91.873 20.8807 91.873 22.2557C91.873 26.9822 89.5098 30.4412 84.7832 32.6326C90.9922 34.6092 94.0967 38.4549 94.0967 44.1697C94.0967 46.8123 93.4199 49.1971 92.0664 51.324C90.7129 53.4295 88.8867 54.9871 86.5879 55.9969C85.1484 56.5984 83.4941 57.0281 81.625 57.2859C79.7559 57.5223 77.5752 57.6404 75.083 57.6404ZM74.374 36.6609H64.416V50.4539H74.6963C81.1631 50.4539 84.3965 48.1229 84.3965 43.4608C84.3965 41.076 83.5586 39.3465 81.8828 38.2723C80.207 37.1981 77.7041 36.6609 74.374 36.6609ZM64.416 17.5828V29.7967H73.1816C75.5664 29.7967 77.4033 29.5711 78.6924 29.1199C80.0029 28.6688 81.002 27.8094 81.6895 26.5418C82.2266 25.6395 82.4951 24.6297 82.4951 23.5125C82.4951 21.1277 81.6465 19.5486 79.9492 18.7752C78.252 17.9803 75.6631 17.5828 72.1826 17.5828H64.416Z" fill="white"/>
<rect x="106.101" y="54.8539" width="45.8427" height="7.64045" rx="3.82022" transform="rotate(-90 106.101 54.8539)" fill="white"/>
<rect x="167.981" y="59.6898" width="57.5" height="8" rx="4" transform="rotate(-125 167.981 59.6898)" fill="white"/>
<rect x="135" y="55.1013" width="57.5" height="8" rx="4" transform="rotate(-55 135 55.1013)" fill="white"/>
<rect x="122.382" y="45.3034" width="27.6966" height="7.64045" rx="3.82022" transform="rotate(-90 122.382 45.3034)" fill="white"/>
<path d="M130.023 9.01123C130.023 11.1211 128.312 12.8315 126.202 12.8315C124.092 12.8315 122.382 11.1211 122.382 9.01123C122.382 6.90138 124.092 5.19101 126.202 5.19101C128.312 5.19101 130.023 6.90138 130.023 9.01123Z" fill="#FE170F"/>
</g>
<defs>
<clipPath id="clip0_42_73">
<rect width="179" height="68" fill="white"/>
</clipPath>
</defs>
</svg>
