<svg width="179" height="79" viewBox="0 0 179 79" fill="none" xmlns="http://www.w3.org/2000/svg">
<g clip-path="url(#clip0_42_72)">
<path d="M25.5899 69.5959C25.5899 69.7782 25.5443 69.9761 25.4532 70.1896C25.3646 70.4006 25.224 70.6089 25.0313 70.8146C24.8386 71.0178 24.5925 71.1831 24.293 71.3107C23.9935 71.4383 23.6446 71.5021 23.2461 71.5021C22.9441 71.5021 22.6693 71.4735 22.4219 71.4162C22.1745 71.3589 21.9493 71.2704 21.7461 71.1506C21.5456 71.0282 21.3607 70.868 21.1915 70.6701C21.0404 70.4904 20.9115 70.2899 20.8047 70.0685C20.698 69.8446 20.6172 69.6063 20.5625 69.3537C20.5105 69.1011 20.4844 68.8329 20.4844 68.549C20.4844 68.0881 20.5508 67.6753 20.6836 67.3107C20.8191 66.9461 21.0118 66.6349 21.2618 66.3771C21.5118 66.1167 21.8047 65.9188 22.1407 65.7834C22.4766 65.648 22.8347 65.5803 23.2149 65.5803C23.6784 65.5803 24.0912 65.6727 24.4532 65.8576C24.8151 66.0425 25.0925 66.2717 25.2852 66.5451C25.4779 66.8159 25.5743 67.0724 25.5743 67.3146C25.5743 67.4474 25.5274 67.5646 25.4336 67.6662C25.3399 67.7678 25.2266 67.8185 25.0938 67.8185C24.9454 67.8185 24.8334 67.7834 24.7579 67.7131C24.6849 67.6428 24.6029 67.5217 24.5118 67.3498C24.3607 67.0659 24.1823 66.8537 23.9766 66.7131C23.7735 66.5724 23.5222 66.5021 23.2227 66.5021C22.7461 66.5021 22.3659 66.6831 22.0821 67.0451C21.8008 67.4071 21.6602 67.9214 21.6602 68.5881C21.6602 69.0334 21.7227 69.4045 21.8477 69.7014C21.9727 69.9956 22.1498 70.2157 22.379 70.3615C22.6081 70.5073 22.8763 70.5803 23.1836 70.5803C23.517 70.5803 23.7982 70.4982 24.0274 70.3342C24.2592 70.1675 24.4336 69.924 24.5508 69.6037C24.6003 69.4527 24.6615 69.3303 24.7344 69.2365C24.8073 69.1402 24.9245 69.092 25.086 69.092C25.224 69.092 25.3425 69.1402 25.4415 69.2365C25.5404 69.3329 25.5899 69.4527 25.5899 69.5959ZM34.6797 70.7951V66.2834C34.6797 66.049 34.7331 65.8732 34.8399 65.756C34.9467 65.6389 35.0847 65.5803 35.254 65.5803C35.4284 65.5803 35.5691 65.6389 35.6758 65.756C35.7852 65.8706 35.8399 66.0464 35.8399 66.2834V70.7951C35.8399 71.0321 35.7852 71.2092 35.6758 71.3264C35.5691 71.4435 35.4284 71.5021 35.254 71.5021C35.0873 71.5021 34.9493 71.4435 34.8399 71.3264C34.7331 71.2066 34.6797 71.0295 34.6797 70.7951ZM46.6524 66.2756L48.8829 69.6506V66.2443C48.8829 66.023 48.9297 65.8576 49.0235 65.7482C49.1198 65.6363 49.2487 65.5803 49.4102 65.5803C49.5769 65.5803 49.7084 65.6363 49.8047 65.7482C49.9011 65.8576 49.9493 66.023 49.9493 66.2443V70.7482C49.9493 71.2508 49.7409 71.5021 49.3243 71.5021C49.2201 71.5021 49.1263 71.4865 49.043 71.4553C48.9597 71.4266 48.8816 71.3797 48.8086 71.3146C48.7357 71.2495 48.668 71.174 48.6055 71.0881C48.543 70.9995 48.4805 70.9097 48.418 70.8185L46.2422 67.4826V70.8381C46.2422 71.0568 46.1915 71.2222 46.0899 71.3342C45.9883 71.4461 45.8581 71.5021 45.6993 71.5021C45.5352 71.5021 45.4037 71.4461 45.3047 71.3342C45.2058 71.2196 45.1563 71.0542 45.1563 70.8381V66.4201C45.1563 66.2326 45.1771 66.0855 45.2188 65.9787C45.2683 65.8615 45.3503 65.7665 45.4649 65.6935C45.5795 65.618 45.7032 65.5803 45.836 65.5803C45.9401 65.5803 46.0287 65.5972 46.1016 65.631C46.1771 65.6649 46.2422 65.7105 46.2969 65.7678C46.3542 65.8251 46.4115 65.8993 46.4688 65.9904C46.5287 66.0816 46.5899 66.1766 46.6524 66.2756ZM62.9922 66.5724H60.379V67.9787H62.7852C62.9623 67.9787 63.0938 68.0191 63.1797 68.0998C63.2683 68.1779 63.3125 68.2821 63.3125 68.4123C63.3125 68.5425 63.2696 68.6493 63.1836 68.7326C63.0977 68.8133 62.9649 68.8537 62.7852 68.8537H60.379V70.4826H63.0821C63.2644 70.4826 63.4011 70.5256 63.4922 70.6115C63.586 70.6948 63.6329 70.8068 63.6329 70.9474C63.6329 71.0829 63.586 71.1935 63.4922 71.2795C63.4011 71.3628 63.2644 71.4045 63.0821 71.4045H59.9297C59.6771 71.4045 59.4948 71.3485 59.3829 71.2365C59.2735 71.1245 59.2188 70.9435 59.2188 70.6935V66.3889C59.2188 66.2222 59.2435 66.0868 59.293 65.9826C59.3425 65.8758 59.4193 65.799 59.5235 65.7521C59.6303 65.7027 59.7657 65.6779 59.9297 65.6779H62.9922C63.1771 65.6779 63.3138 65.7196 63.4024 65.8029C63.4935 65.8836 63.5391 65.9904 63.5391 66.1232C63.5391 66.2586 63.4935 66.368 63.4024 66.4514C63.3138 66.5321 63.1771 66.5724 62.9922 66.5724ZM73.2735 65.6779H74.7852C75.1784 65.6779 75.5157 65.7144 75.7969 65.7873C76.0782 65.8602 76.3334 65.9969 76.5625 66.1974C77.1589 66.7079 77.4571 67.4839 77.4571 68.5256C77.4571 68.8693 77.4271 69.1831 77.3672 69.467C77.3073 69.7508 77.2149 70.0073 77.0899 70.2365C76.9649 70.4631 76.8047 70.6662 76.6094 70.8459C76.4558 70.9839 76.2878 71.0946 76.1055 71.1779C75.9232 71.2613 75.7266 71.3198 75.5157 71.3537C75.3073 71.3876 75.0717 71.4045 74.8086 71.4045H73.2969C73.086 71.4045 72.9271 71.3732 72.8204 71.3107C72.7136 71.2456 72.6433 71.1558 72.6094 71.0412C72.5782 70.924 72.5625 70.773 72.5625 70.5881V66.3889C72.5625 66.1389 72.6185 65.9579 72.7305 65.8459C72.8425 65.7339 73.0235 65.6779 73.2735 65.6779ZM73.7227 66.5959V70.4826H74.6016C74.7943 70.4826 74.9454 70.4774 75.0547 70.467C75.1641 70.4566 75.2774 70.4305 75.3946 70.3889C75.5118 70.3472 75.6133 70.2886 75.6993 70.2131C76.0873 69.8849 76.2813 69.3198 76.2813 68.5178C76.2813 67.9527 76.1954 67.5295 76.0235 67.2482C75.8542 66.967 75.6446 66.7886 75.3946 66.7131C75.1446 66.6349 74.8425 66.5959 74.4883 66.5959H73.7227ZM86.5235 70.7951V66.2834C86.5235 66.049 86.5769 65.8732 86.6836 65.756C86.7904 65.6389 86.9284 65.5803 87.0977 65.5803C87.2722 65.5803 87.4128 65.6389 87.5196 65.756C87.629 65.8706 87.6836 66.0464 87.6836 66.2834V70.7951C87.6836 71.0321 87.629 71.2092 87.5196 71.3264C87.4128 71.4435 87.2722 71.5021 87.0977 71.5021C86.931 71.5021 86.793 71.4435 86.6836 71.3264C86.5769 71.2066 86.5235 71.0295 86.5235 70.7951ZM97.8321 66.342L99.129 70.1818L100.43 66.3146C100.497 66.1115 100.548 65.9709 100.582 65.8928C100.616 65.812 100.672 65.7404 100.75 65.6779C100.828 65.6128 100.935 65.5803 101.07 65.5803C101.169 65.5803 101.26 65.605 101.344 65.6545C101.43 65.704 101.496 65.7704 101.543 65.8537C101.592 65.9344 101.617 66.0165 101.617 66.0998C101.617 66.1571 101.609 66.2196 101.594 66.2873C101.578 66.3524 101.559 66.4175 101.535 66.4826C101.512 66.5451 101.488 66.6102 101.465 66.6779L100.078 70.4201C100.029 70.5633 99.9792 70.7001 99.9297 70.8303C99.8803 70.9579 99.823 71.0711 99.7579 71.1701C99.6928 71.2665 99.6055 71.3459 99.4961 71.4084C99.3894 71.4709 99.2579 71.5021 99.1016 71.5021C98.9454 71.5021 98.8125 71.4709 98.7032 71.4084C98.5964 71.3485 98.5092 71.2691 98.4415 71.1701C98.3763 71.0685 98.3191 70.954 98.2696 70.8264C98.2201 70.6988 98.1706 70.5633 98.1211 70.4201L96.7579 66.7092C96.7344 66.6415 96.7097 66.5751 96.6836 66.5099C96.6602 66.4448 96.6394 66.3745 96.6211 66.299C96.6055 66.2235 96.5977 66.1597 96.5977 66.1076C96.5977 65.9748 96.6511 65.8537 96.7579 65.7443C96.8646 65.6349 96.9987 65.5803 97.1602 65.5803C97.3581 65.5803 97.4974 65.6415 97.5782 65.7639C97.6615 65.8836 97.7461 66.0764 97.8321 66.342ZM114.266 66.5724H111.652V67.9787H114.059C114.236 67.9787 114.367 68.0191 114.453 68.0998C114.542 68.1779 114.586 68.2821 114.586 68.4123C114.586 68.5425 114.543 68.6493 114.457 68.7326C114.371 68.8133 114.238 68.8537 114.059 68.8537H111.652V70.4826H114.356C114.538 70.4826 114.675 70.5256 114.766 70.6115C114.859 70.6948 114.906 70.8068 114.906 70.9474C114.906 71.0829 114.859 71.1935 114.766 71.2795C114.675 71.3628 114.538 71.4045 114.356 71.4045H111.203C110.951 71.4045 110.768 71.3485 110.656 71.2365C110.547 71.1245 110.492 70.9435 110.492 70.6935V66.3889C110.492 66.2222 110.517 66.0868 110.566 65.9826C110.616 65.8758 110.693 65.799 110.797 65.7521C110.904 65.7027 111.039 65.6779 111.203 65.6779H114.266C114.451 65.6779 114.587 65.7196 114.676 65.8029C114.767 65.8836 114.813 65.9904 114.813 66.1232C114.813 66.2586 114.767 66.368 114.676 66.4514C114.587 66.5321 114.451 66.5724 114.266 66.5724ZM123.875 70.7951V66.2834C123.875 66.049 123.928 65.8732 124.035 65.756C124.142 65.6389 124.28 65.5803 124.449 65.5803C124.624 65.5803 124.764 65.6389 124.871 65.756C124.981 65.8706 125.035 66.0464 125.035 66.2834V70.7951C125.035 71.0321 124.981 71.2092 124.871 71.3264C124.764 71.4435 124.624 71.5021 124.449 71.5021C124.283 71.5021 124.145 71.4435 124.035 71.3264C123.928 71.2066 123.875 71.0295 123.875 70.7951ZM135.848 66.2756L138.078 69.6506V66.2443C138.078 66.023 138.125 65.8576 138.219 65.7482C138.315 65.6363 138.444 65.5803 138.606 65.5803C138.772 65.5803 138.904 65.6363 139 65.7482C139.096 65.8576 139.145 66.023 139.145 66.2443V70.7482C139.145 71.2508 138.936 71.5021 138.52 71.5021C138.415 71.5021 138.322 71.4865 138.238 71.4553C138.155 71.4266 138.077 71.3797 138.004 71.3146C137.931 71.2495 137.863 71.174 137.801 71.0881C137.738 70.9995 137.676 70.9097 137.613 70.8185L135.438 67.4826V70.8381C135.438 71.0568 135.387 71.2222 135.285 71.3342C135.184 71.4461 135.053 71.5021 134.895 71.5021C134.731 71.5021 134.599 71.4461 134.5 71.3342C134.401 71.2196 134.352 71.0542 134.352 70.8381V66.4201C134.352 66.2326 134.372 66.0855 134.414 65.9787C134.464 65.8615 134.546 65.7665 134.66 65.6935C134.775 65.618 134.898 65.5803 135.031 65.5803C135.135 65.5803 135.224 65.5972 135.297 65.631C135.372 65.6649 135.438 65.7105 135.492 65.7678C135.55 65.8251 135.607 65.8993 135.664 65.9904C135.724 66.0816 135.785 66.1766 135.848 66.2756ZM148.844 71.5021C148.682 71.5021 148.543 71.4501 148.426 71.3459C148.309 71.2417 148.25 71.0959 148.25 70.9084C148.25 70.7495 148.306 70.6128 148.418 70.4982C148.53 70.3836 148.668 70.3264 148.832 70.3264C148.996 70.3264 149.135 70.3836 149.25 70.4982C149.367 70.6102 149.426 70.7469 149.426 70.9084C149.426 71.0933 149.367 71.2391 149.25 71.3459C149.135 71.4501 149 71.5021 148.844 71.5021Z" fill="#FE170F"/>
<rect x="64" y="51" width="37.2472" height="6.68539" rx="3.3427" fill="white"/>
<path d="M46.46 51.04C47.46 51.04 48.3 51.4 48.98 52.12C49.7 52.8 50.06 53.64 50.06 54.64C50.06 55.64 49.7 56.5 48.98 57.22C48.3 57.9 47.46 58.24 46.46 58.24H9.32C8.16 58.24 7.24 57.96 6.56 57.4C5.92 56.84 5.6 56.02 5.6 54.94C5.6 54.14 5.94 53.36 6.62 52.6L37.64 17.56L38.48 16.96H10.58C9.58 16.96 8.72 16.62 8 15.94C7.32 15.22 6.98 14.36 6.98 13.36C6.98 12.36 7.32 11.52 8 10.84C8.72 10.12 9.58 9.76 10.58 9.76H46.1C48.58 9.76 49.82 10.82 49.82 12.94C49.82 13.86 49.48 14.68 48.8 15.4L17.9 50.26L16.88 51.04H46.46Z" fill="white"/>
<path d="M75.083 57.6404H60.6455C58.5615 57.6404 57.0684 57.1785 56.166 56.2547C55.2852 55.3094 54.8447 53.8162 54.8447 51.7752V16.2615C54.8447 14.1776 55.2959 12.6844 56.1982 11.782C57.1221 10.8582 58.6045 10.3963 60.6455 10.3963H75.9531C78.209 10.3963 80.1641 10.5359 81.8184 10.8152C83.4727 11.0945 84.9551 11.6317 86.2656 12.4266C87.3828 13.0926 88.3711 13.9412 89.2305 14.9725C90.0898 15.9822 90.7451 17.1102 91.1963 18.3563C91.6475 19.5809 91.873 20.8807 91.873 22.2557C91.873 26.9822 89.5098 30.4412 84.7832 32.6326C90.9922 34.6092 94.0967 38.4549 94.0967 44.1697C94.0967 46.8123 93.4199 49.1971 92.0664 51.324C90.7129 53.4295 88.8867 54.9871 86.5879 55.9969C85.1484 56.5984 83.4941 57.0281 81.625 57.2859C79.7559 57.5223 77.5752 57.6404 75.083 57.6404ZM74.374 36.6609H64.416V50.4539H74.6963C81.1631 50.4539 84.3965 48.1229 84.3965 43.4608C84.3965 41.076 83.5586 39.3465 81.8828 38.2723C80.207 37.1981 77.7041 36.6609 74.374 36.6609ZM64.416 17.5828V29.7967H73.1816C75.5664 29.7967 77.4033 29.5711 78.6924 29.1199C80.0029 28.6688 81.002 27.8094 81.6895 26.5418C82.2266 25.6395 82.4951 24.6297 82.4951 23.5125C82.4951 21.1277 81.6465 19.5486 79.9492 18.7752C78.252 17.9803 75.6631 17.5828 72.1826 17.5828H64.416Z" fill="white"/>
<rect x="106.101" y="54.8539" width="45.8427" height="7.64045" rx="3.82022" transform="rotate(-90 106.101 54.8539)" fill="white"/>
<rect x="167.981" y="59.6898" width="57.5" height="8" rx="4" transform="rotate(-125 167.981 59.6898)" fill="white"/>
<rect x="135" y="55.1013" width="57.5" height="8" rx="4" transform="rotate(-55 135 55.1013)" fill="white"/>
<rect x="122.382" y="45.3034" width="27.6966" height="7.64045" rx="3.82022" transform="rotate(-90 122.382 45.3034)" fill="white"/>
<path d="M130.023 9.01123C130.023 11.1211 128.312 12.8315 126.202 12.8315C124.092 12.8315 122.382 11.1211 122.382 9.01123C122.382 6.90138 124.092 5.19101 126.202 5.19101C128.312 5.19101 130.023 6.90138 130.023 9.01123Z" fill="#FE170F"/>
</g>
<defs>
<clipPath id="clip0_42_72">
<rect width="179" height="79" fill="white"/>
</clipPath>
</defs>
</svg>
